# xmcd
#
# Track frame offsets:
# 150
# 15474
# 33516
# 54351
# 71019
# 85932
# 109332
# 125131
# 141887
# 155879
# 173585
# 190095
# 204390
#
# Disc length: 2894 seconds
#
#
# Revision: 1
# Processed by: cddbd v1.5.1PL0 Copyright (c) Steve Scherf et al.
# Submitted via: FreeRIP 2.942 
#
DISCID=b50b4c0d
DTITLE=Nazan Öncel - yan yana fotoðraf çektirelim
DYEAR=2005
DGENRE=pop
TTITLE0=Hay Hay
TTITLE1=Ukala dümbeleði
TTITLE2=Nereye böyle
TTITLE3=Beyoðlu
TTITLE4=Atýyosun
TTITLE5=Beni hatýrla
TTITLE6=Hokka
TTITLE7=Anlamaya çalýþ
TTITLE8=Küçük gemiler
TTITLE9=Gül pansiyon
TTITLE10=Otomobil
TTITLE11=Ruh hali
TTITLE12=Hayat güzelmiþ
EXTD=
EXTT0=
EXTT1=
EXTT2=
EXTT3=
EXTT4=
EXTT5=
EXTT6=
EXTT7=
EXTT8=
EXTT9=
EXTT10=
EXTT11=
EXTT12=
PLAYORDER=
